<svg preserveAspectRatio="none" width="100%" height="100%" overflow="visible" style="display: block;" viewBox="0 0 18 18" fill="none" xmlns="http://www.w3.org/2000/svg">
<g id="CalendarIcon" clip-path="url(#clip0_0_11)">
<path id="Vector" d="M9 3.75C9.00088 3.45002 8.94177 3.1529 8.82615 2.8761C8.71052 2.5993 8.54071 2.34842 8.3267 2.13821C8.1127 1.928 7.85882 1.7627 7.57999 1.65205C7.30117 1.54139 7.00303 1.48761 6.70312 1.49386C6.40321 1.50011 6.10757 1.56627 5.8336 1.68845C5.55963 1.81063 5.31286 1.98636 5.1078 2.2053C4.90274 2.42425 4.74353 2.68199 4.63954 2.96336C4.53555 3.24474 4.48887 3.54407 4.50225 3.84375C4.0614 3.9571 3.65213 4.16929 3.30542 4.46423C2.95872 4.75918 2.68368 5.12915 2.50113 5.54614C2.31859 5.96312 2.23332 6.41617 2.25179 6.87098C2.27026 7.3258 2.39199 7.77045 2.60775 8.17125C2.22839 8.47945 1.93007 8.87567 1.73875 9.32545C1.54744 9.77523 1.46892 10.2649 1.51002 10.752C1.55113 11.239 1.71061 11.7087 1.9746 12.12C2.2386 12.5314 2.5991 12.872 3.02475 13.1123C2.97219 13.5189 3.00356 13.9321 3.11692 14.3261C3.23028 14.7202 3.42322 15.0869 3.68384 15.4035C3.94446 15.7201 4.26721 15.9799 4.63216 16.1668C4.99712 16.3538 5.39653 16.4639 5.80573 16.4905C6.21493 16.5171 6.62523 16.4594 7.01129 16.3212C7.39735 16.183 7.75097 15.9671 8.05032 15.6868C8.34967 15.4066 8.58838 15.0679 8.75172 14.6918C8.91506 14.3157 8.99956 13.9101 9 13.5V3.75Z" stroke="#007AFF" stroke-width="1.5" stroke-linecap="round" stroke-linejoin="round"/>
<path id="Vector_2" d="M9 3.75C8.99912 3.45002 9.05823 3.1529 9.17385 2.8761C9.28948 2.5993 9.45929 2.34842 9.6733 2.13821C9.8873 1.928 10.1412 1.7627 10.42 1.65205C10.6988 1.54139 10.997 1.48761 11.2969 1.49386C11.5968 1.50011 11.8924 1.56627 12.1664 1.68845C12.4404 1.81063 12.6871 1.98636 12.8922 2.2053C13.0973 2.42425 13.2565 2.68199 13.3605 2.96336C13.4645 3.24474 13.5111 3.54407 13.4977 3.84375C13.9386 3.9571 14.3479 4.16929 14.6946 4.46423C15.0413 4.75918 15.3163 5.12915 15.4989 5.54614C15.6814 5.96312 15.7667 6.41617 15.7482 6.87098C15.7297 7.3258 15.608 7.77045 15.3923 8.17125C15.7716 8.47945 16.0699 8.87567 16.2612 9.32545C16.4526 9.77523 16.5311 10.2649 16.49 10.752C16.4489 11.239 16.2894 11.7087 16.0254 12.12C15.7614 12.5314 15.4009 12.872 14.9752 13.1123C15.0278 13.5189 14.9964 13.9321 14.8831 14.3261C14.7697 14.7202 14.5768 15.0869 14.3162 15.4035C14.0555 15.7201 13.7328 15.9799 13.3678 16.1668C13.0029 16.3538 12.6035 16.4639 12.1943 16.4905C11.7851 16.5171 11.3748 16.4594 10.9887 16.3212C10.6027 16.183 10.249 15.9671 9.94968 15.6868C9.65033 15.4066 9.41162 15.0679 9.24828 14.6918C9.08494 14.3157 9.00044 13.9101 9 13.5V3.75Z" stroke="#007AFF" stroke-width="1.5" stroke-linecap="round" stroke-linejoin="round"/>
<path id="Vector_3" d="M11.25 9.75C10.6203 9.52849 10.0705 9.12525 9.66999 8.59125C9.2695 8.05726 9.03634 7.4165 9 6.75C8.96366 7.4165 8.7305 8.05726 8.33001 8.59125C7.92951 9.12525 7.37967 9.52849 6.75 9.75" stroke="#007AFF" stroke-width="1.5" stroke-linecap="round" stroke-linejoin="round"/>
<path id="Vector_4" d="M13.1993 4.875C13.3808 4.56044 13.4834 4.20661 13.4985 3.84375" stroke="#007AFF" stroke-width="1.5" stroke-linecap="round" stroke-linejoin="round"/>
<path id="Vector_5" d="M4.50225 3.84375C4.51708 4.20655 4.6195 4.56037 4.80075 4.875" stroke="#007AFF" stroke-width="1.5" stroke-linecap="round" stroke-linejoin="round"/>
<path id="Vector_6" d="M2.60775 8.172C2.74495 8.06025 2.89178 7.96087 3.0465 7.875" stroke="#007AFF" stroke-width="1.5" stroke-linecap="round" stroke-linejoin="round"/>
<path id="Vector_7" d="M14.9535 7.875C15.1082 7.96087 15.255 8.06025 15.3923 8.172" stroke="#007AFF" stroke-width="1.5" stroke-linecap="round" stroke-linejoin="round"/>
<path id="Vector_8" d="M4.5 13.5C3.98312 13.5002 3.47495 13.3669 3.02475 13.113" stroke="#007AFF" stroke-width="1.5" stroke-linecap="round" stroke-linejoin="round"/>
<path id="Vector_9" d="M14.9752 13.113C14.525 13.3669 14.0169 13.5002 13.5 13.5" stroke="#007AFF" stroke-width="1.5" stroke-linecap="round" stroke-linejoin="round"/>
</g>
<defs>
<clipPath id="clip0_0_11">
<rect width="18" height="18" fill="white"/>
</clipPath>
</defs>
</svg>
