<svg preserveAspectRatio="none" width="100%" height="100%" overflow="visible" style="display: block;" viewBox="0 0 13.6202 12.9231" fill="none" xmlns="http://www.w3.org/2000/svg">
<path id="kid_star" d="M3.82591 2.99271L5.73036 0.527126C5.8664 0.345749 6.02793 0.212551 6.21498 0.12753C6.40202 0.0425101 6.59757 0 6.80162 0C7.00567 0 7.20121 0.0425101 7.38826 0.12753C7.5753 0.212551 7.73684 0.345749 7.87287 0.527126L9.77733 2.99271L12.668 3.96194C12.9628 4.05263 13.1951 4.21984 13.3652 4.46356C13.5352 4.70729 13.6202 4.97652 13.6202 5.27126C13.6202 5.40729 13.6004 5.54332 13.5607 5.67935C13.5211 5.81539 13.4559 5.94575 13.3652 6.07045L11.4947 8.72308L11.5628 11.5117C11.5741 11.9085 11.4437 12.2429 11.1717 12.515C10.8996 12.787 10.5822 12.9231 10.2194 12.9231C10.1968 12.9231 10.0721 12.9061 9.84534 12.8721L6.80162 12.0219L3.75789 12.8721C3.70121 12.8947 3.63887 12.9089 3.57085 12.9146C3.50283 12.9202 3.44049 12.9231 3.38381 12.9231C3.02105 12.9231 2.70364 12.787 2.43158 12.515C2.15951 12.2429 2.02915 11.9085 2.04049 11.5117L2.1085 8.70607L0.255061 6.07045C0.164372 5.94575 0.0991903 5.81539 0.0595142 5.67935C0.0198381 5.54332 0 5.40729 0 5.27126C0 4.98785 0.0821862 4.72429 0.246559 4.48057C0.410931 4.23684 0.640486 4.06397 0.935223 3.96194L3.82591 2.99271Z" fill="#FFCE4F"/>
</svg>
