<svg preserveAspectRatio="none" width="100%" height="100%" overflow="visible" style="display: block;" viewBox="0 0 20 20" fill="none" xmlns="http://www.w3.org/2000/svg">
<g id="Frame 2147226011">
<path id="Vector" d="M15.3532 3.93686L15.6979 4.73761L16.5131 5.07615L15.6979 5.41468L15.3532 6.21543L15.0086 5.41468L14.1934 5.07615L15.0086 4.73761L15.3532 3.93686Z" stroke="#007AFF" stroke-width="2.58462"/>
<path id="Vector_2" d="M13.1142 8.75931L13.3112 9.21687L13.7771 9.41027L13.3112 9.60373L13.1142 10.0614L12.9171 9.60373L12.4512 9.41027L12.9171 9.21687L13.1142 8.75931Z" stroke="#007AFF" stroke-width="1.38496"/>
<path id="Vector_3" d="M9.80051 17.2224V7.13158M9.80051 17.2224C9.80051 16.1437 11.5807 15.2694 13.7772 15.2694C14.7958 15.2694 15.725 15.4581 16.4281 15.7667V9.41013M9.80051 17.2224C9.80051 16.1437 8.02044 15.2694 5.824 15.2694C4.80534 15.2694 3.87681 15.4581 3.17295 15.7667V5.67591C3.17295 5.67591 3.83572 5.17854 5.824 5.17854C8.02044 5.17854 9.80051 6.05286 9.80051 7.13158M9.80051 7.13158C9.80051 6.73253 10.0445 6.36078 10.4633 6.05156" stroke="#007AFF" stroke-width="1.93846" stroke-linecap="round" stroke-linejoin="round"/>
<path id="Vector_4" d="M9.80051 7.13158V17.2224C9.80051 16.1437 8.02044 15.2694 5.824 15.2694C4.80534 15.2694 3.87681 15.4581 3.17295 15.7667V5.67591C3.17295 5.67591 3.83572 5.17854 5.824 5.17854C8.02044 5.17854 9.80051 6.05286 9.80051 7.13158Z" fill="#007AFF"/>
</g>
</svg>
