<svg preserveAspectRatio="none" width="100%" height="100%" overflow="visible" style="display: block;" viewBox="0 0 18.1204 15.8576" fill="none" xmlns="http://www.w3.org/2000/svg">
<g id="Group 2087325593">
<path id="Subtract" d="M5.6484 0.80681C5.2951 1.34125 5.06008 1.96525 4.98629 2.646L3.9954 11.7892C3.82262 13.3839 4.57793 14.8641 5.82743 15.6948L5.48368 15.7801C4.06177 16.13 2.62547 15.2612 2.27535 13.8394L0.0774341 4.90902C-0.272436 3.48709 0.596259 2.05072 2.01819 1.70069L5.6484 0.80681Z" fill="#99C9FF"/>
<path id="Subtract_2" d="M15.4835 0.953332C16.9394 1.11113 17.9925 2.41881 17.8347 3.87473L16.8438 13.0178C16.6859 14.4737 15.3771 15.5261 13.9211 15.3683L7.76125 14.7006C6.30535 14.5428 5.25301 13.2346 5.41072 11.7787L6.40166 2.6356C6.5595 1.17968 7.86764 0.127915 9.32357 0.285712L15.4835 0.953332Z" fill="#007AFF"/>
<path id="Vector" d="M11.1177 9.83649C11.0976 9.82291 11.0752 9.81314 11.0516 9.80769C11.0475 9.80682 11.0439 9.80456 11.0414 9.80129C11.0234 9.77744 10.9986 9.74836 10.967 9.71405C10.9253 9.66053 10.8939 9.59985 10.8741 9.535C10.8472 9.45077 10.828 9.38786 10.8165 9.34628C10.814 9.33779 10.8128 9.32897 10.8129 9.32012C10.8123 9.28035 10.804 9.24108 10.7886 9.20442C10.7723 9.16264 10.7739 9.09359 10.759 9.05042C10.7514 9.02692 10.7441 9.00329 10.7373 8.97952C10.7339 8.96798 10.7316 8.95616 10.7303 8.94421C10.727 8.90854 10.7205 8.87323 10.7108 8.83872C10.6928 8.78363 10.6595 8.67886 10.6112 8.5244C10.5994 8.49066 10.5837 8.45841 10.5645 8.42827C10.552 8.4082 10.5334 8.37471 10.5088 8.3278C10.4925 8.29549 10.4707 8.26626 10.4444 8.24142C10.4144 8.21762 10.3874 8.19026 10.3639 8.15993C10.3488 8.13933 10.3298 8.12182 10.3081 8.1083C10.2832 8.08965 10.261 8.06764 10.2421 8.04292C10.2132 8.01522 10.1785 7.99423 10.1405 7.98142L10.1358 7.9788L9.92226 7.83549L9.91828 7.8336L9.86737 7.81388L9.86578 7.81361C9.8422 7.79643 9.81688 7.7818 9.79022 7.76995C9.76788 7.76208 9.74671 7.7512 9.72731 7.7376C9.71283 7.72714 9.68134 7.70827 9.63285 7.68097C9.5451 7.62949 9.46075 7.57241 9.38032 7.5101C9.37111 7.5031 9.36292 7.49486 9.35598 7.4856C9.3357 7.45889 9.31137 7.43552 9.28387 7.41634C9.2772 7.41169 9.27209 7.40514 9.26921 7.39754C9.25622 7.36661 9.23986 7.3372 9.22041 7.30987L9.21828 7.30543L9.1858 7.20206L9.1853 7.19891C9.1823 7.13591 9.18813 7.0728 9.20261 7.01141C9.20605 6.99654 9.21262 6.98258 9.2219 6.97045C9.23952 6.94774 9.25365 6.92252 9.2638 6.89563C9.26557 6.89103 9.26822 6.88682 9.27159 6.88323C9.28997 6.86719 9.30732 6.84999 9.32352 6.83175C9.34768 6.79951 9.37951 6.77381 9.41612 6.75698C9.45993 6.73333 9.50543 6.71294 9.55224 6.69601C9.63378 6.66803 9.71742 6.6466 9.80237 6.63192L9.92043 6.61435C9.95351 6.61075 9.98618 6.60407 10.018 6.59441C10.0611 6.58113 10.1031 6.58341 10.1492 6.57186C10.1644 6.56799 10.2549 6.54734 10.4206 6.5099C10.4458 6.50378 10.4705 6.49564 10.4944 6.48557C10.5994 6.44311 10.7014 6.39354 10.7997 6.33721C10.8111 6.33049 10.8219 6.32263 10.8318 6.31373C10.8892 6.26794 10.9431 6.21784 10.9929 6.16387C11.0894 6.04497 11.1262 5.98974 11.2376 5.82772C11.2849 5.7589 11.3232 5.68246 11.3686 5.61864C11.3753 5.60917 11.3801 5.59842 11.3826 5.58704L11.3843 5.57689C11.3856 5.57108 11.3879 5.56557 11.3913 5.56067C11.3995 5.5484 11.4292 5.50726 11.4803 5.43726C11.4877 5.42328 11.4933 5.40852 11.4973 5.39325C11.4995 5.38653 11.5027 5.38017 11.5068 5.37438L11.5675 5.28838C11.5883 5.25988 11.6132 5.2346 11.6413 5.21335C11.7107 5.15919 11.7524 5.12816 11.7662 5.12024C11.8124 5.09629 11.862 5.07971 11.9133 5.0711L11.9172 5.07073L12.0214 5.07151C12.0256 5.07176 12.0298 5.07246 12.0339 5.07359C12.0974 5.08454 12.158 5.10784 12.2125 5.14217C12.2174 5.14537 12.2218 5.14949 12.2252 5.15431C12.2397 5.17638 12.2576 5.196 12.2783 5.21243C12.2951 5.22364 12.3099 5.23758 12.3221 5.25368C12.3519 5.30311 12.377 5.35521 12.397 5.40929C12.4052 5.43764 12.4181 5.47047 12.4229 5.49949C12.429 5.53615 12.4378 5.57232 12.4491 5.60772C12.4602 5.6393 12.4678 5.67204 12.4715 5.70532C12.4773 5.75182 12.4883 5.79754 12.5042 5.84164C12.5084 5.85287 12.5103 5.86479 12.51 5.87676C12.5102 5.90625 12.5151 5.93552 12.5246 5.96344C12.5419 6.02222 12.5559 6.0819 12.5666 6.14221C12.5714 6.1692 12.5782 6.19578 12.5872 6.22169C12.5976 6.24981 12.6072 6.29027 12.6221 6.32525C12.6424 6.37336 12.665 6.42735 12.6898 6.48724C12.7011 6.51404 12.7147 6.53978 12.7305 6.56417C12.7587 6.61437 12.7919 6.6615 12.8298 6.70482C12.8571 6.73287 12.876 6.76527 12.9056 6.79249C12.9508 6.83369 12.9751 6.85558 12.9783 6.85817C13.0563 6.91804 13.1475 6.98428 13.252 7.05689C13.2815 7.07734 13.3126 7.08089 13.3407 7.10028C13.4012 7.14185 13.4899 7.18647 13.5635 7.23574C13.5702 7.24001 13.5774 7.24322 13.585 7.24525C13.599 7.24794 13.6124 7.25293 13.6247 7.26003C13.6781 7.29816 13.7178 7.32604 13.7439 7.34368C13.7504 7.34787 13.7574 7.35117 13.7648 7.35349C13.8177 7.3693 13.8638 7.40223 13.896 7.44712C13.8997 7.45238 13.9042 7.45705 13.9092 7.46097C13.9541 7.48837 13.9912 7.52679 14.017 7.57258C14.0399 7.61818 14.0581 7.66594 14.0714 7.71517C14.0854 7.76346 14.089 7.81417 14.082 7.86396C14.0772 7.94414 14.0446 8.02013 13.9898 8.07887C13.9752 8.08864 13.9619 8.10016 13.9502 8.11317C13.9255 8.15078 13.8904 8.18046 13.8492 8.19861C13.783 8.23069 13.7147 8.25826 13.6447 8.28113C13.5794 8.29868 13.5183 8.29627 13.4559 8.31821C13.4213 8.32919 13.3858 8.33696 13.3498 8.34144L13.2077 8.36216C13.1477 8.37139 13.0898 8.39488 13.0376 8.40133C13.0031 8.40456 12.9689 8.41063 12.9354 8.41948C12.8662 8.43767 12.7983 8.46002 12.7318 8.48641C12.7101 8.49575 12.6806 8.50598 12.6435 8.5171L12.6393 8.51886L12.4669 8.62084C12.4631 8.62309 12.4597 8.6259 12.4567 8.62916C12.4223 8.66474 12.3839 8.69636 12.3425 8.72343C12.3291 8.73235 12.3171 8.74316 12.3069 8.75554C12.2826 8.78517 12.2566 8.8182 12.229 8.85464C12.216 8.87291 12.2012 8.88983 12.1848 8.90516C12.1654 8.92918 12.1486 8.95517 12.1347 8.9827C12.1168 9.00808 12.0773 9.06284 12.0159 9.14698C12.0059 9.16371 11.9976 9.18145 11.9912 9.19991C11.9874 9.20946 11.9824 9.21853 11.9765 9.2269C11.938 9.27221 11.9059 9.32261 11.8812 9.37668C11.8768 9.3891 11.8707 9.40088 11.8633 9.41174C11.8466 9.43444 11.8312 9.45811 11.8173 9.48262C11.7816 9.55085 11.7395 9.61559 11.6917 9.67601C11.6519 9.72087 11.607 9.76096 11.5579 9.79545C11.5101 9.83437 11.4542 9.86215 11.3943 9.8768C11.3653 9.88378 11.3354 9.88625 11.3057 9.88414C11.2794 9.88287 11.2531 9.88021 11.2271 9.87617C11.1882 9.87076 11.1509 9.85737 11.1177 9.83649Z" fill="white"/>
</g>
</svg>
