<svg preserveAspectRatio="none" width="100%" height="100%" overflow="visible" style="display: block;" viewBox="0 0 66.6613 11.3362" fill="none" xmlns="http://www.w3.org/2000/svg">
<g id="Frame 2">
<g id="Battery">
<rect id="Border" opacity="0.35" x="42.8333" y="0.50286" width="21" height="10.3333" rx="2.16667" stroke="#111111"/>
<path id="Cap" opacity="0.4" d="M65.3333 3.66953V7.66953C66.138 7.33075 66.6613 6.54266 66.6613 5.66953C66.6613 4.79639 66.138 4.0083 65.3333 3.66953" fill="#111111"/>
<rect id="Capacity" x="44.3333" y="2.00286" width="18" height="7.33333" rx="1.33333" fill="#111111"/>
</g>
<path id="Wifi" d="M27.4539 8.40057C28.7294 7.32168 30.5982 7.32168 31.8738 8.40057C31.9378 8.45859 31.9746 8.54074 31.9763 8.62713C31.978 8.71359 31.9443 8.79702 31.8826 8.8576L29.8855 10.8732C29.827 10.9324 29.7471 10.966 29.6638 10.966C29.5806 10.966 29.5007 10.9324 29.4421 10.8732L27.4441 8.8576C27.3825 8.797 27.3486 8.71351 27.3503 8.62713C27.3522 8.54068 27.3897 8.45855 27.4539 8.40057ZM24.7888 5.71111C27.5369 3.15507 31.7926 3.15512 34.5408 5.71111C34.6027 5.77097 34.6384 5.85351 34.6394 5.93963C34.6403 6.02581 34.6064 6.10892 34.5457 6.1701L33.3914 7.33709C33.2724 7.45619 33.0798 7.45884 32.9578 7.34295C32.0553 6.52576 30.8813 6.07337 29.6638 6.07342C28.4471 6.07392 27.2737 6.52628 26.3718 7.34295C26.2498 7.45877 26.0572 7.45617 25.9382 7.33709L24.7839 6.1701C24.7233 6.10903 24.6894 6.02572 24.6902 5.93963C24.6911 5.8535 24.7269 5.77095 24.7888 5.71111ZM22.1238 3.02947C26.3389 -1.0097 32.9889 -1.00995 37.2039 3.02947C37.2648 3.08942 37.299 3.17156 37.2996 3.25701C37.3001 3.34257 37.2661 3.42481 37.2058 3.48553L36.0496 4.65252C35.9304 4.77199 35.7378 4.77324 35.6169 4.65545C34.011 3.12872 31.8796 2.27764 29.6638 2.27752C27.4477 2.27751 25.3159 3.12856 23.7097 4.65545C23.5889 4.77344 23.3961 4.77222 23.2771 4.65252L22.1208 3.48553C22.0606 3.42476 22.0265 3.34259 22.0271 3.25701C22.0277 3.1715 22.0628 3.08939 22.1238 3.02947Z" fill="#111111"/>
<path id="Cellular Connection" d="M2 7.00335C2.55228 7.00335 3 7.45106 3 8.00335V10.0033C2.99982 10.5555 2.55218 11.0033 2 11.0033H1C0.447824 11.0033 0.000175969 10.5555 0 10.0033V8.00335C0 7.45106 0.447715 7.00335 1 7.00335H2ZM6.66699 5.00335C7.21913 5.00352 7.66699 5.45117 7.66699 6.00335V10.0033C7.66682 10.5554 7.21902 11.0032 6.66699 11.0033H5.66699C5.11482 11.0033 4.66717 10.5555 4.66699 10.0033V6.00335C4.66699 5.45106 5.11471 5.00335 5.66699 5.00335H6.66699ZM11.333 2.66936C11.8852 2.66936 12.3328 3.11723 12.333 3.66936V10.0033C12.3328 10.5555 11.8852 11.0033 11.333 11.0033H10.333C9.78098 11.0032 9.33318 10.5554 9.33301 10.0033V3.66936C9.33318 3.11734 9.78098 2.66954 10.333 2.66936H11.333ZM16 0.336357C16.5523 0.336357 17 0.784072 17 1.33636V10.0033C16.9998 10.5555 16.5522 11.0033 16 11.0033H15C14.4478 11.0033 14.0002 10.5555 14 10.0033V1.33636C14 0.784072 14.4477 0.336357 15 0.336357H16Z" fill="#111111"/>
</g>
</svg>
