<svg preserveAspectRatio="none" width="100%" height="100%" overflow="visible" style="display: block;" viewBox="0 0 18 18" fill="none" xmlns="http://www.w3.org/2000/svg">
<g id="lab_profile">
<mask id="mask0_0_26" style="mask-type:alpha" maskUnits="userSpaceOnUse" x="0" y="0" width="18" height="18">
<rect id="Bounding box" width="18" height="18" fill="#D9D9D9"/>
</mask>
<g mask="url(#mask0_0_26)">
<path id="lab_profile_2" d="M6 9V7.5H12V9H6ZM6 6V4.5H12V6H6ZM4.5 10.5H10.125C10.4875 10.5 10.825 10.5781 11.1375 10.7344C11.45 10.8906 11.7125 11.1125 11.925 11.4L13.5 13.4625V3H4.5V10.5ZM4.5 15H12.7875L10.7437 12.3188C10.6687 12.2188 10.5781 12.1406 10.4719 12.0844C10.3656 12.0281 10.25 12 10.125 12H4.5V15ZM13.5 16.5H4.5C4.0875 16.5 3.73438 16.3531 3.44063 16.0594C3.14688 15.7656 3 15.4125 3 15V3C3 2.5875 3.14688 2.23438 3.44063 1.94063C3.73438 1.64688 4.0875 1.5 4.5 1.5H13.5C13.9125 1.5 14.2656 1.64688 14.5594 1.94063C14.8531 2.23438 15 2.5875 15 3V15C15 15.4125 14.8531 15.7656 14.5594 16.0594C14.2656 16.3531 13.9125 16.5 13.5 16.5Z" fill="#5F23A7"/>
</g>
</g>
</svg>
